<?xml version="1.0" encoding="utf-8"?>
<!-- Generator: Adobe Illustrator 21.0.0, SVG Export Plug-In . SVG Version: 6.00 Build 0)  -->
<svg version="1.1" id="Layer_1" xmlns="http://www.w3.org/2000/svg" xmlns:xlink="http://www.w3.org/1999/xlink" x="0px" y="0px"
	 viewBox="0 0 896 736" style="enable-background:new 0 0 896 736;" xml:space="preserve">
<style type="text/css">
	.st0{fill:#FFFFFF;stroke:#FFFFFF;stroke-width:7;stroke-miterlimit:10;}
</style>
<path class="st0" d="M219.8,63.5c56.5,58.5,111.2,115,166.8,172.5c2.7-4.5,4.8-7.7,6.5-11c14-27.3,27.8-54.7,41.8-82.1
	c1.6-3.1,3-6.4,5.2-9.1c5.2-6.5,12.7-6.5,17.9,0c2.7,3.4,4.5,7.5,6.5,11.4c14.6,28.5,29.1,57,43.7,85.5c4.9,9.6,5.3,9.7,12.5,2.5
	c54.7-54.4,109.4-109,164-163.5c1.4-1.4,2.6-3.2,5-6.3c-5.4-0.3-9.1-0.6-12.8-0.6c-42.5,0-85.1,0-127.6-0.1
	c-4.7,0-10.2-0.1-13.9-2.4c-3.3-2.2-6.7-7.8-6.2-11.4c0.5-3.6,5.1-7.5,8.9-9.7c2.7-1.6,6.8-0.6,10.3-0.6c66.2,0,132.4,0.2,198.7-0.3
	c11.6-0.1,18.4,4.1,24.4,13.8c37.9,61.1,76.2,122,114.4,183c9.7,15.4,9.5,17.1-2.9,30.7c-139.2,152-278.4,304-417.6,456
	c-0.9,1-1.8,2-2.7,2.9c-10,10.3-15.3,10.5-25.1,0.3c-8.2-8.5-16.1-17.4-24.1-26.1c-133-144-266-288-399-432.1
	c-13.7-14.8-13.7-15-3.7-32.9c33.7-60,67.7-119.9,101-180.1c6-10.8,12.9-15.6,25.8-15.5c71.5,0.6,143,0.3,214.5,0.3
	c2.2,0,4.4,0,6.6,0c7.7,0,13,3.6,13.3,11.4c0.3,8.1-5.6,11.4-12.7,12.4c-3.4,0.5-7,0.3-10.5,0.3c-37.7,0-75.4,0-113.2,0
	C231.2,62.8,227,63.2,219.8,63.5z M255.7,492.8c2.9-5.3,4.7-8.3,6.3-11.4c35.9-70.3,71.6-140.6,107.9-210.7
	c4.6-8.9,3.7-14.3-3.3-21.4c-51.9-52.9-103.3-106.3-154.9-159.5c-8.5-8.8-15.9-20.8-26.4-25.1c-11-4.5-25-1-37.7-1.9
	c-9.6-0.8-14.8,2.9-19.5,11.3C98,128.4,67.4,182.7,36.4,236.6c-5.1,8.8-4.5,13.9,2.3,21.2c67.1,72.3,133.9,145,200.8,217.5
	C244.4,480.8,249.5,486.1,255.7,492.8z M642.7,493.2c3.4-4.1,5.3-6.5,7.4-8.8c36.1-39.4,72.3-78.9,108.4-118.3
	c33.5-36.5,66.8-73.1,100.4-109.6c4.1-4.4,7.1-7.7,2.9-14.5c-36.3-57.4-72.2-115.1-108.3-172.7c-1.5-2.4-4-5.9-6.3-6
	c-10.6-0.6-20.8-2.3-30.2,7.3C656,132.4,594.5,193.7,532.8,254.8c-7,7-7,12-2.7,20.2c35.4,68.5,70.4,137.3,105.6,206
	C637.4,484.4,639.4,487.6,642.7,493.2z M621.5,515.2c-2.3-2.8-4.2-5.6-6.5-8.1c-52.3-54.3-104.8-108.5-156.9-162.9
	c-5.5-5.8-8.9-6.2-14.7-0.4c-54,54.5-108.2,108.8-162.6,162.9c-5.2,5.2-5.2,8.3-0.2,13.7c54.3,58.4,108.5,117,162.4,175.8
	c5,5.4,8,6.1,13.3,0.2c53.1-58.4,106.5-116.5,159.7-174.7C617.8,519.9,619.4,517.8,621.5,515.2z M449,163.7
	c-15.3,29.7-29.2,56.4-42.6,83.5c-1.3,2.6-0.5,7.9,1.5,10.1c12.7,13.9,26,27.3,39,41c3,3.1,5.5,3.5,8.7,0.2
	c12-12.1,24.4-23.9,36.2-36.4c2.1-2.2,3.2-7.6,1.9-10.1C479.5,223.3,464.9,194.9,449,163.7z M305.5,444.4c0.6,0.4,1.3,0.8,1.9,1.3
	c2.2-1.9,4.5-3.6,6.6-5.7c37.5-37.4,75-74.8,112.5-112.3c1.2-1.2,3.1-2.3,3.5-3.8c0.7-2.4,1.6-6.4,0.3-7.6
	c-13-12.8-26.3-25.2-40.1-38.1C362.2,333.3,333.9,388.8,305.5,444.4z M590.4,446c0.6-0.3,1.2-0.7,1.7-1c-1.7-3.8-3.2-7.7-5.1-11.4
	c-23.7-46.5-47.5-92.9-71.3-139.3c-8-15.6-6.1-16.1-19.6-2.6c-6.2,6.2-12.4,12.4-18.7,18.6c-9.7,9.7-9.7,9.7-0.6,19.1
	c34.8,35.9,69.5,71.9,104.3,107.8C584.1,440.2,587.3,443,590.4,446z"/>
<path class="st0" d="M449.9,3.5c25.2,0.2,45.6,21.1,45.4,46.6c-0.2,25.3-21.2,46.4-46.1,46.2c-24.8-0.2-45.6-21.7-45.5-46.9
	C403.9,24.3,424.9,3.3,449.9,3.5z M449,27.5c-11.7,0.3-21,10.5-20.9,22.6c0.1,12,10.1,22.1,21.6,22c12-0.1,22.2-11.3,21.6-23.4
	C470.7,36.4,460.9,27.1,449,27.5z"/>
</svg>
